<mxfile host="app.diagrams.net" agent="Mozilla/5.0 (Windows NT 10.0; Win64; x64; rv:131.0) Gecko/20100101 Firefox/131.0" version="24.8.3">
  <diagram id="C5RBs43oDa-KdzZeNtuy" name="Page-1">
    <mxGraphModel dx="1981" dy="546" grid="1" gridSize="10" guides="1" tooltips="1" connect="1" arrows="1" fold="1" page="1" pageScale="1" pageWidth="827" pageHeight="1169" math="0" shadow="0">
      <root>
        <mxCell id="WIyWlLk6GJQsqaUBKTNV-0" />
        <mxCell id="WIyWlLk6GJQsqaUBKTNV-1" parent="WIyWlLk6GJQsqaUBKTNV-0" />
        <mxCell id="4WsxfSI1cVSN4PYK7PdJ-7" style="edgeStyle=orthogonalEdgeStyle;rounded=0;orthogonalLoop=1;jettySize=auto;html=1;exitX=1;exitY=0.25;exitDx=0;exitDy=0;entryX=0.5;entryY=0;entryDx=0;entryDy=0;" edge="1" parent="WIyWlLk6GJQsqaUBKTNV-1" source="4WsxfSI1cVSN4PYK7PdJ-3" target="4WsxfSI1cVSN4PYK7PdJ-6">
          <mxGeometry relative="1" as="geometry" />
        </mxCell>
        <mxCell id="4WsxfSI1cVSN4PYK7PdJ-3" value="Spieler kommt an Seilzug" style="rounded=1;whiteSpace=wrap;html=1;" vertex="1" parent="WIyWlLk6GJQsqaUBKTNV-1">
          <mxGeometry x="80" y="80" width="120" height="60" as="geometry" />
        </mxCell>
        <mxCell id="f7fRfHLg-BR8cpHq_3Fg-1" style="edgeStyle=orthogonalEdgeStyle;rounded=0;orthogonalLoop=1;jettySize=auto;html=1;exitX=0.25;exitY=1;exitDx=0;exitDy=0;entryX=0.25;entryY=0;entryDx=0;entryDy=0;" edge="1" parent="WIyWlLk6GJQsqaUBKTNV-1" source="4WsxfSI1cVSN4PYK7PdJ-5" target="4WsxfSI1cVSN4PYK7PdJ-12">
          <mxGeometry relative="1" as="geometry" />
        </mxCell>
        <mxCell id="4WsxfSI1cVSN4PYK7PdJ-5" value="Platform 2" style="rounded=1;whiteSpace=wrap;html=1;" vertex="1" parent="WIyWlLk6GJQsqaUBKTNV-1">
          <mxGeometry x="320" y="240" width="120" height="60" as="geometry" />
        </mxCell>
        <mxCell id="4WsxfSI1cVSN4PYK7PdJ-8" style="edgeStyle=orthogonalEdgeStyle;rounded=0;orthogonalLoop=1;jettySize=auto;html=1;exitX=0;exitY=0.5;exitDx=0;exitDy=0;entryX=0.5;entryY=0;entryDx=0;entryDy=0;" edge="1" parent="WIyWlLk6GJQsqaUBKTNV-1" source="4WsxfSI1cVSN4PYK7PdJ-6">
          <mxGeometry relative="1" as="geometry">
            <mxPoint x="180" y="240" as="targetPoint" />
          </mxGeometry>
        </mxCell>
        <mxCell id="4WsxfSI1cVSN4PYK7PdJ-9" style="edgeStyle=orthogonalEdgeStyle;rounded=0;orthogonalLoop=1;jettySize=auto;html=1;exitX=1;exitY=0.5;exitDx=0;exitDy=0;entryX=0.5;entryY=0;entryDx=0;entryDy=0;" edge="1" parent="WIyWlLk6GJQsqaUBKTNV-1" source="4WsxfSI1cVSN4PYK7PdJ-6" target="4WsxfSI1cVSN4PYK7PdJ-5">
          <mxGeometry relative="1" as="geometry" />
        </mxCell>
        <mxCell id="4WsxfSI1cVSN4PYK7PdJ-6" value="schießt auf" style="rhombus;whiteSpace=wrap;html=1;" vertex="1" parent="WIyWlLk6GJQsqaUBKTNV-1">
          <mxGeometry x="240" y="120" width="80" height="80" as="geometry" />
        </mxCell>
        <mxCell id="4WsxfSI1cVSN4PYK7PdJ-13" style="edgeStyle=orthogonalEdgeStyle;rounded=0;orthogonalLoop=1;jettySize=auto;html=1;exitX=0.5;exitY=1;exitDx=0;exitDy=0;" edge="1" parent="WIyWlLk6GJQsqaUBKTNV-1" source="4WsxfSI1cVSN4PYK7PdJ-10" target="4WsxfSI1cVSN4PYK7PdJ-11">
          <mxGeometry relative="1" as="geometry">
            <Array as="points">
              <mxPoint x="180" y="340" />
              <mxPoint x="60" y="340" />
            </Array>
          </mxGeometry>
        </mxCell>
        <mxCell id="f7fRfHLg-BR8cpHq_3Fg-0" style="edgeStyle=orthogonalEdgeStyle;rounded=0;orthogonalLoop=1;jettySize=auto;html=1;exitX=0.25;exitY=1;exitDx=0;exitDy=0;entryX=0.5;entryY=0;entryDx=0;entryDy=0;" edge="1" parent="WIyWlLk6GJQsqaUBKTNV-1" source="4WsxfSI1cVSN4PYK7PdJ-10" target="4WsxfSI1cVSN4PYK7PdJ-14">
          <mxGeometry relative="1" as="geometry" />
        </mxCell>
        <mxCell id="4WsxfSI1cVSN4PYK7PdJ-10" value="Platform 1" style="rounded=1;whiteSpace=wrap;html=1;" vertex="1" parent="WIyWlLk6GJQsqaUBKTNV-1">
          <mxGeometry x="120" y="240" width="120" height="60" as="geometry" />
        </mxCell>
        <mxCell id="4WsxfSI1cVSN4PYK7PdJ-11" value="&lt;div&gt;Plattform 1 sinkt&lt;/div&gt;" style="rounded=1;whiteSpace=wrap;html=1;" vertex="1" parent="WIyWlLk6GJQsqaUBKTNV-1">
          <mxGeometry x="10" y="360" width="120" height="60" as="geometry" />
        </mxCell>
        <mxCell id="4WsxfSI1cVSN4PYK7PdJ-12" value="&lt;div&gt;Plattform 2 sinkt&lt;/div&gt;" style="rounded=1;whiteSpace=wrap;html=1;" vertex="1" parent="WIyWlLk6GJQsqaUBKTNV-1">
          <mxGeometry x="320" y="360" width="120" height="60" as="geometry" />
        </mxCell>
        <mxCell id="4WsxfSI1cVSN4PYK7PdJ-14" value="&lt;div&gt;Plattform 2 steigt&lt;/div&gt;" style="rounded=1;whiteSpace=wrap;html=1;" vertex="1" parent="WIyWlLk6GJQsqaUBKTNV-1">
          <mxGeometry x="-130" y="360" width="120" height="60" as="geometry" />
        </mxCell>
        <mxCell id="4WsxfSI1cVSN4PYK7PdJ-15" value="&lt;div&gt;Plattform 1 steigt&lt;/div&gt;" style="rounded=1;whiteSpace=wrap;html=1;" vertex="1" parent="WIyWlLk6GJQsqaUBKTNV-1">
          <mxGeometry x="460" y="360" width="120" height="60" as="geometry" />
        </mxCell>
        <mxCell id="f7fRfHLg-BR8cpHq_3Fg-2" style="edgeStyle=orthogonalEdgeStyle;rounded=0;orthogonalLoop=1;jettySize=auto;html=1;exitX=0.5;exitY=1;exitDx=0;exitDy=0;entryX=0.463;entryY=0.049;entryDx=0;entryDy=0;entryPerimeter=0;" edge="1" parent="WIyWlLk6GJQsqaUBKTNV-1" source="4WsxfSI1cVSN4PYK7PdJ-5" target="4WsxfSI1cVSN4PYK7PdJ-15">
          <mxGeometry relative="1" as="geometry" />
        </mxCell>
        <mxCell id="f7fRfHLg-BR8cpHq_3Fg-16" style="edgeStyle=orthogonalEdgeStyle;rounded=0;orthogonalLoop=1;jettySize=auto;html=1;exitX=0.25;exitY=1;exitDx=0;exitDy=0;entryX=0.5;entryY=0;entryDx=0;entryDy=0;" edge="1" parent="WIyWlLk6GJQsqaUBKTNV-1" source="f7fRfHLg-BR8cpHq_3Fg-3" target="f7fRfHLg-BR8cpHq_3Fg-12">
          <mxGeometry relative="1" as="geometry" />
        </mxCell>
        <mxCell id="f7fRfHLg-BR8cpHq_3Fg-17" style="edgeStyle=orthogonalEdgeStyle;rounded=0;orthogonalLoop=1;jettySize=auto;html=1;exitX=0.75;exitY=1;exitDx=0;exitDy=0;entryX=0.5;entryY=0;entryDx=0;entryDy=0;" edge="1" parent="WIyWlLk6GJQsqaUBKTNV-1" source="f7fRfHLg-BR8cpHq_3Fg-3" target="f7fRfHLg-BR8cpHq_3Fg-13">
          <mxGeometry relative="1" as="geometry" />
        </mxCell>
        <mxCell id="f7fRfHLg-BR8cpHq_3Fg-3" value="&lt;div&gt;Pfeil verschwindet&lt;/div&gt;&lt;div&gt;&lt;br&gt;&lt;/div&gt;" style="rounded=1;whiteSpace=wrap;html=1;" vertex="1" parent="WIyWlLk6GJQsqaUBKTNV-1">
          <mxGeometry x="-40" y="600" width="120" height="60" as="geometry" />
        </mxCell>
        <mxCell id="f7fRfHLg-BR8cpHq_3Fg-19" style="edgeStyle=orthogonalEdgeStyle;rounded=0;orthogonalLoop=1;jettySize=auto;html=1;exitX=0.75;exitY=1;exitDx=0;exitDy=0;entryX=0.5;entryY=0;entryDx=0;entryDy=0;" edge="1" parent="WIyWlLk6GJQsqaUBKTNV-1" source="f7fRfHLg-BR8cpHq_3Fg-7" target="f7fRfHLg-BR8cpHq_3Fg-15">
          <mxGeometry relative="1" as="geometry" />
        </mxCell>
        <mxCell id="f7fRfHLg-BR8cpHq_3Fg-7" value="&lt;div&gt;Pfeil verschwindet&lt;/div&gt;&lt;div&gt;&lt;br&gt;&lt;/div&gt;" style="rounded=1;whiteSpace=wrap;html=1;" vertex="1" parent="WIyWlLk6GJQsqaUBKTNV-1">
          <mxGeometry x="400" y="600" width="120" height="60" as="geometry" />
        </mxCell>
        <mxCell id="f7fRfHLg-BR8cpHq_3Fg-12" value="&lt;div&gt;Plattform 2 sinkt&lt;/div&gt;" style="rounded=1;whiteSpace=wrap;html=1;" vertex="1" parent="WIyWlLk6GJQsqaUBKTNV-1">
          <mxGeometry x="-50" y="720" width="120" height="60" as="geometry" />
        </mxCell>
        <mxCell id="f7fRfHLg-BR8cpHq_3Fg-13" value="&lt;div&gt;Plattform 1 steigt&lt;/div&gt;" style="rounded=1;whiteSpace=wrap;html=1;" vertex="1" parent="WIyWlLk6GJQsqaUBKTNV-1">
          <mxGeometry x="90" y="720" width="120" height="60" as="geometry" />
        </mxCell>
        <mxCell id="f7fRfHLg-BR8cpHq_3Fg-14" value="&lt;div&gt;Plattform 2 steigt&lt;/div&gt;" style="rounded=1;whiteSpace=wrap;html=1;" vertex="1" parent="WIyWlLk6GJQsqaUBKTNV-1">
          <mxGeometry x="320" y="720" width="120" height="60" as="geometry" />
        </mxCell>
        <mxCell id="f7fRfHLg-BR8cpHq_3Fg-15" value="&lt;div&gt;Plattform 1 sinkt&lt;/div&gt;" style="rounded=1;whiteSpace=wrap;html=1;" vertex="1" parent="WIyWlLk6GJQsqaUBKTNV-1">
          <mxGeometry x="460" y="720" width="120" height="60" as="geometry" />
        </mxCell>
        <mxCell id="f7fRfHLg-BR8cpHq_3Fg-18" style="edgeStyle=orthogonalEdgeStyle;rounded=0;orthogonalLoop=1;jettySize=auto;html=1;exitX=0.25;exitY=1;exitDx=0;exitDy=0;entryX=0.543;entryY=0.015;entryDx=0;entryDy=0;entryPerimeter=0;" edge="1" parent="WIyWlLk6GJQsqaUBKTNV-1" source="f7fRfHLg-BR8cpHq_3Fg-7" target="f7fRfHLg-BR8cpHq_3Fg-14">
          <mxGeometry relative="1" as="geometry" />
        </mxCell>
        <mxCell id="f7fRfHLg-BR8cpHq_3Fg-31" style="edgeStyle=orthogonalEdgeStyle;rounded=0;orthogonalLoop=1;jettySize=auto;html=1;exitX=0.5;exitY=1;exitDx=0;exitDy=0;entryX=0.5;entryY=0;entryDx=0;entryDy=0;" edge="1" parent="WIyWlLk6GJQsqaUBKTNV-1" source="f7fRfHLg-BR8cpHq_3Fg-20" target="f7fRfHLg-BR8cpHq_3Fg-7">
          <mxGeometry relative="1" as="geometry" />
        </mxCell>
        <mxCell id="f7fRfHLg-BR8cpHq_3Fg-20" value="Schießt auf Plattform 1" style="rhombus;whiteSpace=wrap;html=1;" vertex="1" parent="WIyWlLk6GJQsqaUBKTNV-1">
          <mxGeometry x="400" y="480" width="80" height="80" as="geometry" />
        </mxCell>
        <mxCell id="f7fRfHLg-BR8cpHq_3Fg-24" value="Nein" style="edgeStyle=orthogonalEdgeStyle;rounded=0;orthogonalLoop=1;jettySize=auto;html=1;entryX=0.25;entryY=0;entryDx=0;entryDy=0;" edge="1" parent="WIyWlLk6GJQsqaUBKTNV-1" source="f7fRfHLg-BR8cpHq_3Fg-21" target="f7fRfHLg-BR8cpHq_3Fg-3">
          <mxGeometry relative="1" as="geometry" />
        </mxCell>
        <mxCell id="f7fRfHLg-BR8cpHq_3Fg-26" value="Ja" style="edgeStyle=orthogonalEdgeStyle;rounded=0;orthogonalLoop=1;jettySize=auto;html=1;exitX=1;exitY=0.5;exitDx=0;exitDy=0;entryX=0;entryY=0.5;entryDx=0;entryDy=0;" edge="1" parent="WIyWlLk6GJQsqaUBKTNV-1" source="f7fRfHLg-BR8cpHq_3Fg-21" target="4WsxfSI1cVSN4PYK7PdJ-5">
          <mxGeometry relative="1" as="geometry">
            <Array as="points">
              <mxPoint x="280" y="500" />
              <mxPoint x="280" y="270" />
            </Array>
          </mxGeometry>
        </mxCell>
        <mxCell id="f7fRfHLg-BR8cpHq_3Fg-21" value="Schießt auf Plattform 2" style="rhombus;whiteSpace=wrap;html=1;" vertex="1" parent="WIyWlLk6GJQsqaUBKTNV-1">
          <mxGeometry x="-50" y="460" width="80" height="80" as="geometry" />
        </mxCell>
        <mxCell id="f7fRfHLg-BR8cpHq_3Fg-22" value="" style="endArrow=classic;html=1;rounded=0;entryX=0.5;entryY=0;entryDx=0;entryDy=0;" edge="1" parent="WIyWlLk6GJQsqaUBKTNV-1" target="f7fRfHLg-BR8cpHq_3Fg-21">
          <mxGeometry width="50" height="50" relative="1" as="geometry">
            <mxPoint x="-10" y="440" as="sourcePoint" />
            <mxPoint x="200" y="470" as="targetPoint" />
          </mxGeometry>
        </mxCell>
        <mxCell id="f7fRfHLg-BR8cpHq_3Fg-23" value="" style="endArrow=none;html=1;rounded=0;exitX=0.414;exitY=0.992;exitDx=0;exitDy=0;exitPerimeter=0;entryX=0.647;entryY=1.038;entryDx=0;entryDy=0;entryPerimeter=0;" edge="1" parent="WIyWlLk6GJQsqaUBKTNV-1" source="4WsxfSI1cVSN4PYK7PdJ-14" target="4WsxfSI1cVSN4PYK7PdJ-11">
          <mxGeometry width="50" height="50" relative="1" as="geometry">
            <mxPoint x="150" y="520" as="sourcePoint" />
            <mxPoint x="200" y="470" as="targetPoint" />
            <Array as="points">
              <mxPoint x="-80" y="440" />
              <mxPoint x="80" y="440" />
            </Array>
          </mxGeometry>
        </mxCell>
        <mxCell id="f7fRfHLg-BR8cpHq_3Fg-27" value="" style="endArrow=none;html=1;rounded=0;exitX=0.414;exitY=0.992;exitDx=0;exitDy=0;exitPerimeter=0;entryX=0.647;entryY=1.038;entryDx=0;entryDy=0;entryPerimeter=0;" edge="1" parent="WIyWlLk6GJQsqaUBKTNV-1">
          <mxGeometry width="50" height="50" relative="1" as="geometry">
            <mxPoint x="360" y="420" as="sourcePoint" />
            <mxPoint x="518" y="422" as="targetPoint" />
            <Array as="points">
              <mxPoint x="360" y="440" />
              <mxPoint x="520" y="440" />
            </Array>
          </mxGeometry>
        </mxCell>
        <mxCell id="f7fRfHLg-BR8cpHq_3Fg-29" value="" style="endArrow=classic;html=1;rounded=0;entryX=0.5;entryY=0;entryDx=0;entryDy=0;" edge="1" parent="WIyWlLk6GJQsqaUBKTNV-1" target="f7fRfHLg-BR8cpHq_3Fg-20">
          <mxGeometry width="50" height="50" relative="1" as="geometry">
            <mxPoint x="440" y="440" as="sourcePoint" />
            <mxPoint x="200" y="570" as="targetPoint" />
          </mxGeometry>
        </mxCell>
        <mxCell id="f7fRfHLg-BR8cpHq_3Fg-30" value="Ja" style="edgeStyle=orthogonalEdgeStyle;rounded=0;orthogonalLoop=1;jettySize=auto;html=1;exitX=0;exitY=0.5;exitDx=0;exitDy=0;entryX=0.699;entryY=0.98;entryDx=0;entryDy=0;entryPerimeter=0;" edge="1" parent="WIyWlLk6GJQsqaUBKTNV-1" source="f7fRfHLg-BR8cpHq_3Fg-20" target="4WsxfSI1cVSN4PYK7PdJ-10">
          <mxGeometry relative="1" as="geometry">
            <Array as="points">
              <mxPoint x="400" y="520" />
              <mxPoint x="204" y="520" />
            </Array>
          </mxGeometry>
        </mxCell>
      </root>
    </mxGraphModel>
  </diagram>
</mxfile>
